{
  "title": "Nicky Jam - Hasta el Amanecer (2016 Reggaeton)",
  "uid": 13540072,
  "size": 83611896,
  "categoryP": "video",
  "categoryS": "music_videos",
  "magnet": "?xt=urn:btih:a2cdc9aba33298d5d35c2bcb4b81d700c5e47c65&amp;dn=Nicky+Jam+-+Hasta+el+Amanecer+%282016+Reggaeton%29&amp;tr=udp%3A%2F%2Ftracker.leechers-paradise.org%3A6969&amp;tr=udp%3A%2F%2Fzer0day.ch%3A1337&amp;tr=udp%3A%2F%2Fopen.demonii.com%3A1337&amp;tr=udp%3A%2F%2Ftracker.coppersurfer.tk%3A6969&amp;tr=udp%3A%2F%2Fexodus.desync.com%3A6969",
  "seeders": 127,
  "leechers": 1,
  "uploader": "MeRaDil",
  "files": 1,
  "time": 1455475708,
  "description": "NICKY JAM - HASTA EL AMANECER\r\n\r\n \nhttp://gifyu.com/images/jam-1.png\r\n \nhttp://gifyu.com/images/jam.png\r\n\r\n\r\nMEDIA INFO\r\nGeneral\r\nNicky Jam - Hasta el Amanecer\r\nFormat                                   : MPEG-4\r\nFormat profile                           : Base Media\r\nCodec ID                                 : isom\r\nFile size                                : 79.7 MiB\r\nDuration                                 : 4mn 5s\r\nOverall bit rate                         : 2 721 Kbps\r\nMusicVid name                            : Hasta el Amanecer\r\nPerformer                                : Nicky Jam\r\nGenre                                    : Reggaeton\r\nContentType                              : Music Video\r\nRecorded date                            : 2016\r\nWriting application                      : Lavf56.32.100 / MeRaDil\r\nCover                                    : Yes\r\nRelease date                             : USA - january 14 - 2016\r\n\r\nVideo\r\nID                                       : 1\r\nFormat                                   : AVC\r\nFormat/Info                              : Advanced Video Codec\r\nFormat profile                           :   \r\nFormat settings, CABAC                   : Yes\r\nFormat settings, ReFrames                : 2 frames\r\nCodec ID                                 : avc1\r\nCodec ID/Info                            : Advanced Video Coding\r\nDuration                                 : 4mn 5s\r\nBit rate                                 : 2 450 Kbps\r\nWidth                                    : 1 920 pixels\r\nHeight                                   : 1 080 pixels\r\nDisplay aspect ratio                     : 16:9\r\nFrame rate mode                          : Variable\r\nFrame rate                               : 23.976 fps\r\nStream size                              : 71.8 MiB (90%)\r\n\r\nAudio\r\nID                                       : 2\r\nFormat                                   : AAC\r\nFormat/Info                              : Advanced Audio Codec\r\nFormat profile                           : LC\r\nCodec ID                                 : 40\r\nDuration                                 : 4mn 5s\r\nBit rate mode                            : Constant\r\nBit rate                                 : 256 Kbps\r\nChannel(s)                               : 2 channels\r\nChannel positions                        : Front: L R\r\nSampling rate                            : 44.1 KHz\r\nCompression mode                         : Lossy\r\nStream size                              : 7.50 MiB (9%)",
  "parsed": {
    "xt": "urn:btih:a2cdc9aba33298d5d35c2bcb4b81d700c5e47c65",
    "dn": "Nicky Jam - Hasta el Amanecer (2016 Reggaeton)",
    "tr": [
      "udp://exodus.desync.com:6969",
      "udp://open.demonii.com:1337",
      "udp://tracker.coppersurfer.tk:6969",
      "udp://tracker.leechers-paradise.org:6969",
      "udp://zer0day.ch:1337"
    ],
    "infoHash": "a2cdc9aba33298d5d35c2bcb4b81d700c5e47c65",
    "infoHashBuffer": {
      "type": "Buffer",
      "data": [
        162,
        205,
        201,
        171,
        163,
        50,
        152,
        213,
        211,
        92,
        43,
        203,
        75,
        129,
        215,
        0,
        197,
        228,
        124,
        101
      ]
    },
    "name": "Nicky Jam - Hasta el Amanecer (2016 Reggaeton)",
    "announce": [
      "udp://exodus.desync.com:6969",
      "udp://open.demonii.com:1337",
      "udp://tracker.coppersurfer.tk:6969",
      "udp://tracker.leechers-paradise.org:6969",
      "udp://zer0day.ch:1337"
    ],
    "urlList": []
  },
  "previous": 96,
  "peers": 96,
  "last_updated": "2016-12-27T08:57:34.060Z"
}